<?xml version="1.0" encoding="utf-8"?>
<!-- Generator: Adobe Illustrator 17.1.0, SVG Export Plug-In . SVG Version: 6.00 Build 0)  -->
<!DOCTYPE svg PUBLIC "-//W3C//DTD SVG 1.1//EN" "http://www.w3.org/Graphics/SVG/1.1/DTD/svg11.dtd">
<svg version="1.1" id="Layer_1" xmlns="http://www.w3.org/2000/svg" xmlns:xlink="http://www.w3.org/1999/xlink" x="0px" y="0px"
	 viewBox="0 0 315 70" enable-background="new 0 0 315 70" xml:space="preserve">
<g>
	<path fill="#9FA0A1" d="M230.6,48.1h3.7l3.5,6.4l-0.2-6.4h2.8v9.6h-3.6c0,0-3.2-6-3.5-6.7c0.2,0.7,0.2,6.7,0.2,6.7h-2.9V48.1
		L230.6,48.1z"/>
	<path fill="#376179" d="M251.5,30.6c0-0.5,0-1.1-0.2-1.6c-0.6-2.4-2.7-4.4-5.6-4.4c-4,0-6.3,3.4-6.3,8c0,4.2,2.1,7.7,6.3,7.7
		c2.6,0,4.9-1.7,5.6-4.5c0.1-0.5,0.2-1,0.2-1.6V30.6L251.5,30.6z M255.3,12.4v25.1c0,1.8,0,3.9,0.2,5.4h-3.5l-0.2-3.6h-0.1
		c-1.2,2.3-3.8,4.1-7.2,4.1c-5.1,0-9.1-4.3-9.1-10.6c0-6.9,4.3-11.2,9.5-11.2c3.2,0,5.4,1.5,6.4,3.2h0.1V12.4H255.3L255.3,12.4z"/>
	<path fill="#376179" d="M271.6,30.7c0-2.4-1-6.1-5.3-6.1c-3.9,0-5.6,3.5-5.9,6.1H271.6L271.6,30.7z M260.3,33.4
		c0.1,5.1,3.4,7.2,7.3,7.2c2.8,0,4.4-0.5,5.9-1.1l0.7,2.7c-1.4,0.6-3.7,1.3-7,1.3c-6.5,0-10.4-4.3-10.4-10.5
		c0-6.3,3.8-11.2,9.9-11.2c6.9,0,8.8,6,8.8,9.8c0,0.8-0.1,1.4-0.1,1.8H260.3L260.3,33.4z"/>
	<path fill="#9FA0A1" d="M82.2,50.4C81.4,50.1,80.7,50,80,50c-1.9,0-3.1,1.1-3.1,2.9c0,1.7,1.3,2.9,3.3,2.9c0.6,0,1.3-0.1,2.2-0.3
		l0.7,2c-0.5,0.2-0.7,0.2-1,0.3c-0.7,0.2-1.4,0.2-2.1,0.2c-3.7,0-6-1.9-6-5c0-3.1,2.3-5.1,5.8-5.1c1,0,1.9,0.1,3.2,0.5L82.2,50.4
		L82.2,50.4z"/>
	<path fill="#9FA0A1" d="M93,52h0.9c1,0,1.5-0.3,1.5-0.9c0-0.6-0.5-0.9-1.5-0.9H93V52L93,52z M90.1,48.1h4.7c1,0,1.7,0.1,2.3,0.4
		c0.8,0.4,1.3,1.3,1.3,2.2c0,1.1-0.6,1.9-1.8,2.3c0.2,0.1,0.3,0.2,0.4,0.3c0.2,0.2,0.5,0.7,0.7,1.2l1.5,3.2h-3.1L95,55.3
		c-0.2-0.4-0.4-0.7-0.5-0.8c-0.2-0.2-0.4-0.3-0.8-0.3h-0.7v3.6h-3V48.1L90.1,48.1z"/>
	<polygon fill="#9FA0A1" points="106.2,48.1 113.3,48.1 113.3,50.2 109.2,50.2 109.2,51.8 112.7,51.8 112.7,53.9 109.2,53.9 
		109.2,55.7 113.7,55.7 113.7,57.7 106.2,57.7 106.2,48.1 	"/>
	<path fill="#9FA0A1" d="M124.1,55.7l0.9,0h0.1c1.8,0,2.9-1,2.9-2.7c0-1.7-1-2.7-2.9-2.7l-1,0V55.7L124.1,55.7z M121.1,48.1h3.7
		c1.6,0,2.6,0.2,3.6,0.5c1.7,0.7,2.7,2.2,2.7,4.4c0,1.8-0.8,3.3-2.3,4c-0.9,0.5-1.7,0.6-3.7,0.6h-3.9V48.1L121.1,48.1z"/>
	<polygon fill="#9FA0A1" points="138.6,48.1 141.5,48.1 141.5,57.7 138.6,57.7 138.6,48.1 	"/>
	<polygon fill="#9FA0A1" points="148.6,48.1 156.6,48.1 156.6,50.2 154,50.2 154,57.7 151.1,57.7 151.1,50.2 148.6,50.2 148.6,48.1 
			"/>
	<path fill="#9FA0A1" d="M176.8,54c0,0.6-0.1,1.2-0.3,1.6c-0.6,1.4-2.2,2.3-4.3,2.3c-1.3,0-2.4-0.3-3.3-1c-0.8-0.7-1.2-1.6-1.2-3
		v-5.9h3v5.8c0,0.3,0,0.6,0.1,0.8c0.1,0.7,0.7,1.1,1.5,1.1c0.5,0,0.9-0.2,1.2-0.5c0.3-0.3,0.4-0.7,0.4-1.5v-5.8h3V54L176.8,54z"/>
	<path fill="#9FA0A1" d="M184.6,48.1h3.7l3.5,6.4l-0.2-6.4h2.8v9.6h-3.6c0,0-3.2-6-3.5-6.7c0.2,0.7,0.2,6.7,0.2,6.7h-2.9V48.1
		L184.6,48.1z"/>
	<polygon fill="#9FA0A1" points="202.2,48.1 205.2,48.1 205.2,57.7 202.2,57.7 202.2,48.1 	"/>
	<path fill="#9FA0A1" d="M215.8,52.9c0,1.9,0.7,2.9,2.1,2.9c1.4,0,2.1-1,2.1-2.9s-0.7-2.9-2.1-2.9C216.5,50,215.8,51,215.8,52.9
		L215.8,52.9z M217.9,47.9c3.3,0,5.2,1.8,5.2,5c0,3.2-1.9,5-5.2,5c-3.3,0-5.2-1.8-5.2-5C212.7,49.8,214.6,47.9,217.9,47.9
		L217.9,47.9z"/>
	<polygon fill="#376179" points="302.8,12.3 306.5,12.3 306.5,43 302.8,43 302.8,12.3 	"/>
	<polygon fill="#376179" points="99.7,43.4 99.7,22.6 103.4,22.6 103.4,43.4 99.7,43.4 	"/>
	<polygon fill="#376179" points="99.7,20.6 99.7,17.3 103.4,17.3 103.4,20.6 99.7,20.6 	"/>
	<path fill="#376179" d="M105.2,29.1c0-2.4,0-4.6-0.2-6.5h3.4l0.1,4.1h0.2c1-2.8,3.3-4.6,5.9-4.6c0.4,0,0.7,0,1.1,0.1v3.6
		c-0.4-0.1-0.8-0.1-1.3-0.1c-2.7,0-4.6,2-5.2,4.9c-0.1,0.5-0.2,1.1-0.2,1.8v11.1h-3.8V29.1L105.2,29.1z"/>
	<path fill="#376179" d="M230.8,30.7c0-2.4-1-6.1-5.3-6.1c-3.9,0-5.6,3.5-5.9,6.1H230.8L230.8,30.7z M219.5,33.4
		c0.1,5.1,3.4,7.2,7.3,7.2c2.8,0,4.4-0.5,5.9-1.1l0.7,2.7c-1.4,0.6-3.7,1.3-7,1.3c-6.5,0-10.4-4.3-10.4-10.5
		c0-6.3,3.8-11.2,9.9-11.2c6.9,0,8.8,6,8.8,9.8c0,0.8-0.1,1.4-0.1,1.8H219.5L219.5,33.4z"/>
	<path fill="#376179" d="M211.9,21c0-3.2,0.8-6,4.1-6c1.1,0,1.9,0.2,2.5,0.5l0.5-2.9c-0.7-0.3-1.9-0.6-3.3-0.6
		c-1.8,0-3.7,0.6-5.2,1.9c-1.8,1.7-2.5,4.3-2.5,7.3v1h-3V25h3v17.9h3.8V25h5.1c0.9-1.2,2-2.2,3.4-2.9h-8.5V21L211.9,21z"/>
	<path fill="#376179" d="M94.8,35.8c0,3.1-2.8,5.6-6.2,5.6c-2.8,0-4.7-1.6-4.7-3.9c0-3.2,3.2-4.9,9.4-4.9c0.4,0,0.8,0,1.5,0V35.8
		L94.8,35.8z M89.7,22.1c-1.8,0-11.3,0-11.3,0V21c0-3.2,0.8-6,4.1-6c1.1,0,1.9,0.2,2.5,0.5l0.5-2.9c-0.7-0.3-1.9-0.6-3.3-0.6
		c-1.8,0-3.7,0.6-5.2,1.9c-1.8,1.7-2.5,4.3-2.5,7.3v1h-3v3h3v18.4h3.8V25.1c0,0,9.8,0,11.3,0c3.3,0,5.2,1.4,5.2,4.4c0,0.3,0,0.6,0,1
		c-1,0-1.5,0-2.3,0c-4.4,0-7,0.6-9.1,1.9c-1.8,1.1-2.8,3.1-2.8,5.2c0,3.7,2.9,6.2,7.1,6.2c3.1,0,5.2-1,7.2-3.4l-0.1,3h2.9V29.2
		C97.8,24.8,95.1,22.1,89.7,22.1L89.7,22.1z"/>
	<path fill="#9FA0A1" d="M56.3,12.1v15.2c0,2.9-0.3,4.2-1.2,5.4c-0.9,1.1-2.4,1.8-4.2,1.8c-2.9,0-4.9-1.6-5.3-4.3
		c-0.1-0.6-0.2-2.1-0.2-2.1c0-0.3,0-15.3,0-15.3c-4.6,1.2-8.1,4.1-9.5,8c-0.5,1.3-0.8,3-0.9,5h0v3.5c0,5.1,1.3,8.5,4.3,11
		c3,2.4,7,3.7,11.5,3.7c7.3,0,13-3.3,15-8.7c0.6-1.5,0.9-3.6,0.9-6V12.1H56.3L56.3,12.1z"/>
	<path fill="#376179" d="M38.3,41.6c-2.5-2.1-3.9-4.7-4.5-8.2h-8c-2.9,0-4.2-0.4-5.4-1.2c-1.1-0.9-1.8-2.4-1.8-4.2
		c0-1.8,0.7-3.2,1.8-4.1c1.2-0.9,2.5-1.2,5.4-1.2h8.1c0.2-0.9,0.4-1.7,0.6-2.4c0.4-1.1,1-2.2,1.7-3.2c0.1-0.2,0.3-0.3,0.4-0.5
		c0,0,0,0,0,0c0.5-0.7,1.1-1.3,1.8-1.9l0,0c0.1-0.1,0.3-0.2,0.4-0.3c0.2-0.1,0.4-0.3,0.6-0.4c0,0,0,0,0,0c1-0.7,2-1.2,3.2-1.7H23.3
		c-2.4,0-4.4,0.3-6,0.9C12,15,8.7,20.7,8.7,28h0c0,7.3,3.4,13,8.7,14.9c1.5,0.6,3.6,0.9,6,0.9h18.5C40.6,43.2,39.4,42.5,38.3,41.6
		L38.3,41.6z"/>
	<path fill="#376179" d="M117.3,28.4c0-2.1,0-3.9-0.2-5.6h3.3l0.2,3.3h0.1c1.2-2,3.1-3.8,6.5-3.8c2.8,0,5,1.7,5.9,4.2h0.1
		c0.6-1.2,1.5-2.1,2.3-2.7c1.2-0.9,2.6-1.5,4.6-1.5c2.7,0,6.8,1.8,6.8,9v12.2h-3.7V31.7c0-4-1.5-6.4-4.5-6.4c-2.1,0-3.8,1.6-4.5,3.4
		c-0.2,0.5-0.3,1.2-0.3,1.9v12.8h-3.7V31c0-3.3-1.5-5.7-4.3-5.7c-2.4,0-4.1,1.9-4.7,3.8c-0.2,0.6-0.3,1.2-0.3,1.8v12.5h-3.7V28.4
		L117.3,28.4z"/>
	<path fill="#376179" d="M151.9,33.1c0,4.5,2.6,8,6.3,8c3.6,0,6.3-3.4,6.3-8.1c0-3.5-1.8-8-6.2-8C153.9,25.1,151.9,29.2,151.9,33.1
		L151.9,33.1z M168.4,32.9c0,7.7-5.3,11-10.3,11c-5.6,0-9.9-4.1-9.9-10.7c0-6.9,4.5-11,10.3-11C164.4,22.3,168.4,26.6,168.4,32.9
		L168.4,32.9z"/>
	<path fill="#376179" d="M169.7,28.4c0-2.1,0-3.9-0.2-5.6h3.3l0.2,3.4h0.1c1-2,3.4-3.9,6.9-3.9c2.9,0,7.3,1.7,7.3,8.8v12.4h-3.8v-12
		c0-3.3-1.2-6.1-4.8-6.1c-2.5,0-4.4,1.8-5.1,3.9c-0.2,0.5-0.3,1.1-0.3,1.8v12.5h-3.8V28.4L169.7,28.4z"/>
	<path fill="#376179" d="M198.7,25v-2.9h-5.4v-5l-3.7,1.2v3.8H184c0,0,0,0,0,0c1.2,0.5,2.3,1.4,3.2,2.9h2.5v11.9
		c0,2.4,0.4,4.3,1.5,5.4c0.9,1,2.3,1.6,4.1,1.6c1.5,0,2.6-0.3,3.3-0.6l-0.2-2.8c-0.6,0.2-1.2,0.3-2.2,0.3c-2.1,0-2.8-1.5-2.8-4V25
		H198.7L198.7,25z"/>
	<path fill="#376179" d="M297.8,35.4c0,3.1-2.7,5.6-6.2,5.6c-2.7,0-4.7-1.6-4.7-3.8c0-3.2,3.2-4.9,9.4-4.9c0.4,0,0.7,0,1.5,0V35.4
		L297.8,35.4z M292.7,21.8c-1.2,0-5.9,0-6.2,0c-5.4,0-6.2,4.2-6.2,4.2l-0.1-4.1h-3.4c0.1,2,0.2,4.1,0.2,6.6V43h3.9V31.7
		c0-0.7,0.1-1.2,0.2-1.8c1.2-6,6.8-5.1,11.7-5.1c3.3,0,5.2,1.4,5.2,4.4c0,0.3,0,0.6,0,1c-1,0-1.5,0-2.2,0c-4.4,0-6.9,0.5-9,1.9
		c-1.8,1.1-2.8,3.1-2.8,5.2c0,3.6,2.9,6.2,7.1,6.2c3,0,5.2-1,7.1-3.3l-0.1,2.9h2.9V28.9C300.8,24.5,298.1,21.8,292.7,21.8
		L292.7,21.8z"/>
</g>
</svg>
